{
  "asset": {
    "version": "2.0"
  },
  "buffers": [
    {
      "byteLength": 110,
      "uri": "rig.bin"
    }
  ],
  "bufferViews": [
    {
      "buffer": 0,
      "byteOffset": 0,
      "byteLength": 36,
      "target": 34962
    },
    {
      "buffer": 0,
      "byteOffset": 36,
      "byteLength": 36,
      "target": 34962
    },
    {
      "buffer": 0,
      "byteOffset": 72,
      "byteLength": 6,
      "target": 34963
    },
    {
      "buffer": 0,
      "byteOffset": 78,
      "byteLength": 8
    },
    {
      "buffer": 0,
      "byteOffset": 86,
      "byteLength": 24
    }
  ],
  "accessors": [
    {
      "bufferView": 0,
      "componentType": 5126,
      "count": 3,
      "type": "VEC3"
    },
    {
      "bufferView": 1,
      "componentType": 5126,
      "count": 3,
      "type": "VEC3"
    },
    {
      "bufferView": 2,
      "componentType": 5123,
      "count": 3,
      "type": "SCALAR"
    },
    {
      "bufferView": 3,
      "componentType": 5126,
      "count": 2,
      "type": "SCALAR",
      "max": [
        2.0
      ],
      "min": [
        0.0
      ]
    },
    {
      "bufferView": 4,
      "componentType": 5126,
      "count": 2,
      "type": "VEC3"
    }
  ],
  "materials": [
    {
      "pbrMetallicRoughness": {
        "baseColorFactor": [
          0.2,
          0.7,
          0.9,
          1
        ]
      }
    }
  ],
  "meshes": [
    {
      "primitives": [
        {
          "attributes": {
            "POSITION": 0,
            "NORMAL": 1
          },
          "indices": 2,
          "material": 0
        }
      ]
    }
  ],
  "nodes": [
    {
      "mesh": 0,
      "translation": [
        0,
        0,
        0
      ]
    },
    {
      "translation": [
        0,
        0,
        0
      ]
    }
  ],
  "animations": [
    {
      "name": "bounce",
      "samplers": [
        {
          "input": 3,
          "interpolation": "LINEAR",
          "output": 4
        }
      ],
      "channels": [
        {
          "sampler": 0,
          "target": {
            "node": 0,
            "path": "translation"
          }
        }
      ]
    }
  ],
  "scenes": [
    {
      "nodes": [
        0
      ]
    }
  ],
  "scene": 0
}